<?xml version="1.0" encoding="UTF-8"?>
<!DOCTYPE svg PUBLIC "-//W3C//DTD SVG 1.1//EN" "http://www.w3.org/Graphics/SVG/1.1/DTD/svg11.dtd">
<svg xmlns="http://www.w3.org/2000/svg" version="1.1" width="512px" height="512px" style="shape-rendering:geometricPrecision; text-rendering:geometricPrecision; image-rendering:optimizeQuality; fill-rule:evenodd; clip-rule:evenodd" xmlns:xlink="http://www.w3.org/1999/xlink">
<g><path style="opacity:0.952" fill="#34373b" d="M 233.5,-0.5 C 248.167,-0.5 262.833,-0.5 277.5,-0.5C 371.886,11.0786 441.386,58.7453 486,142.5C 499.666,171.509 508.166,201.843 511.5,233.5C 511.5,248.167 511.5,262.833 511.5,277.5C 499.921,371.886 452.255,441.386 368.5,486C 339.491,499.666 309.157,508.166 277.5,511.5C 262.833,511.5 248.167,511.5 233.5,511.5C 139.114,499.921 69.6135,452.255 25,368.5C 11.3344,339.491 2.83436,309.157 -0.5,277.5C -0.5,262.833 -0.5,248.167 -0.5,233.5C 11.0786,139.114 58.7453,69.6135 142.5,25C 171.509,11.3344 201.843,2.83436 233.5,-0.5 Z"/></g>
<g><path style="opacity:1" fill="#fefefe" d="M 255.5,11.5 C 255.5,26.8333 255.5,42.1667 255.5,57.5C 254.209,57.2627 253.209,57.596 252.5,58.5C 177.826,62.0696 121.326,95.7363 83,159.5C 53.6416,216.461 50.6416,274.795 74,334.5C 95.5,382.667 130.333,417.5 178.5,439C 184.314,441.55 190.314,443.383 196.5,444.5C 200.719,444.772 203.885,443.105 206,439.5C 206.5,426.504 206.667,413.504 206.5,400.5C 193.121,403.331 179.787,403.164 166.5,400C 158.898,397.06 152.398,392.56 147,386.5C 141.587,376.006 135.921,365.673 130,355.5C 124.791,350.622 119.291,346.122 113.5,342C 109.318,336.295 110.985,333.795 118.5,334.5C 129.482,335.075 138.316,339.741 145,348.5C 158.272,374.37 178.439,381.87 205.5,371C 207.453,360.962 211.786,352.129 218.5,344.5C 206.669,342.459 195.003,339.626 183.5,336C 157.982,326.483 141.482,308.649 134,282.5C 127.756,260.007 128.09,237.674 135,215.5C 138.49,207.684 143.157,200.684 149,194.5C 147.655,186.257 146.489,177.924 145.5,169.5C 145.836,164.816 146.336,160.149 147,155.5C 148.81,150.571 150.31,145.571 151.5,140.5C 166.321,140.79 179.988,144.957 192.5,153C 196.932,155.965 201.432,158.798 206,161.5C 222.2,157.067 238.7,154.733 255.5,154.5C 255.5,269.5 255.5,384.5 255.5,499.5C 156.041,495.541 82.8742,449.874 36,362.5C -3.26844,274.025 4.39822,190.025 59,110.5C 108.559,46.3031 174.059,13.3031 255.5,11.5 Z"/></g>
<g><path style="opacity:1" fill="#e9f3f8" d="M 255.5,11.5 C 345.645,14.3085 415.145,53.3085 464,128.5C 507.21,204.549 510.876,282.549 475,362.5C 428.161,449.86 354.994,495.526 255.5,499.5C 255.5,384.5 255.5,269.5 255.5,154.5C 271.821,154.707 287.821,157.04 303.5,161.5C 313.05,155.224 323.05,149.724 333.5,145C 341.55,141.89 349.884,140.39 358.5,140.5C 361.774,149.706 363.441,159.206 363.5,169C 363.146,177.6 362.313,186.1 361,194.5C 376.13,212.001 382.463,232.335 380,255.5C 379.802,282.38 369.968,304.88 350.5,323C 332.46,335.348 312.46,342.348 290.5,344C 296.286,350.069 300.119,357.236 302,365.5C 303.274,390.131 303.941,414.798 304,439.5C 306.919,445.025 311.419,446.858 317.5,445C 373.814,425.02 413.647,387.52 437,332.5C 464.139,259.702 454.472,192.369 408,130.5C 367.4,82.6213 315.566,58.6213 252.5,58.5C 253.209,57.596 254.209,57.2627 255.5,57.5C 255.5,42.1667 255.5,26.8333 255.5,11.5 Z"/></g>
<g><path style="opacity:1" fill="#34383d" d="M 252.5,58.5 C 315.566,58.6213 367.4,82.6213 408,130.5C 454.472,192.369 464.139,259.702 437,332.5C 413.647,387.52 373.814,425.02 317.5,445C 311.419,446.858 306.919,445.025 304,439.5C 303.941,414.798 303.274,390.131 302,365.5C 300.119,357.236 296.286,350.069 290.5,344C 312.46,342.348 332.46,335.348 350.5,323C 369.968,304.88 379.802,282.38 380,255.5C 382.463,232.335 376.13,212.001 361,194.5C 362.313,186.1 363.146,177.6 363.5,169C 363.441,159.206 361.774,149.706 358.5,140.5C 349.884,140.39 341.55,141.89 333.5,145C 323.05,149.724 313.05,155.224 303.5,161.5C 287.821,157.04 271.821,154.707 255.5,154.5C 238.7,154.733 222.2,157.067 206,161.5C 201.432,158.798 196.932,155.965 192.5,153C 179.988,144.957 166.321,140.79 151.5,140.5C 150.31,145.571 148.81,150.571 147,155.5C 146.336,160.149 145.836,164.816 145.5,169.5C 146.489,177.924 147.655,186.257 149,194.5C 143.157,200.684 138.49,207.684 135,215.5C 128.09,237.674 127.756,260.007 134,282.5C 141.482,308.649 157.982,326.483 183.5,336C 195.003,339.626 206.669,342.459 218.5,344.5C 211.786,352.129 207.453,360.962 205.5,371C 178.439,381.87 158.272,374.37 145,348.5C 138.316,339.741 129.482,335.075 118.5,334.5C 110.985,333.795 109.318,336.295 113.5,342C 119.291,346.122 124.791,350.622 130,355.5C 135.921,365.673 141.587,376.006 147,386.5C 152.398,392.56 158.898,397.06 166.5,400C 179.787,403.164 193.121,403.331 206.5,400.5C 206.667,413.504 206.5,426.504 206,439.5C 203.885,443.105 200.719,444.772 196.5,444.5C 190.314,443.383 184.314,441.55 178.5,439C 130.333,417.5 95.5,382.667 74,334.5C 50.6416,274.795 53.6416,216.461 83,159.5C 121.326,95.7363 177.826,62.0696 252.5,58.5 Z"/></g>
<g><path style="opacity:1" fill="#559eed" d="M 255.5,70.5 C 255.5,94.1667 255.5,117.833 255.5,141.5C 239.821,141.485 224.321,143.151 209,146.5C 200.531,142.516 192.031,138.35 183.5,134C 171.563,128.77 159.23,127.104 146.5,129C 144.376,130.122 142.543,131.622 141,133.5C 132.444,151.545 130.611,170.212 135.5,189.5C 119.13,211.486 112.964,236.153 117,263.5C 122.144,312.148 148.644,341.815 196.5,352.5C 196.833,353 197.167,353.5 197.5,354C 196.521,356.433 195.855,358.933 195.5,361.5C 187.781,362.963 180.115,362.796 172.5,361C 168.759,359.262 165.592,356.762 163,353.5C 155.309,339.473 144.142,329.307 129.5,323C 121.007,320.697 112.673,321.03 104.5,324C 96.1038,330.174 94.6038,337.674 100,346.5C 106.333,352.167 112.667,357.833 119,363.5C 124.114,371.393 128.447,379.726 132,388.5C 142.865,404.5 158.032,413.167 177.5,414.5C 182.305,415.487 187.305,415.821 192.5,415.5C 192.821,420.695 192.487,425.695 191.5,430.5C 125.846,405.004 86.013,357.671 72,288.5C 62.6115,218.149 84.4448,159.649 137.5,113C 171.938,85.6307 211.271,71.4641 255.5,70.5 Z"/></g>
<g><path style="opacity:1" fill="#3d76be" d="M 255.5,70.5 C 335.563,74.2491 392.397,112.249 426,184.5C 452.032,254.597 442.032,318.93 396,377.5C 374.267,402.233 347.934,420.233 317,431.5C 316.667,411.167 316.333,390.833 316,370.5C 315.512,364.382 314.012,358.548 311.5,353C 366.7,339.441 393.7,304.108 392.5,247C 393.682,226.216 387.849,207.716 375,191.5C 376.329,180.572 376.663,169.572 376,158.5C 375.009,148.526 371.843,139.36 366.5,131C 362.372,128.402 357.872,127.235 353,127.5C 334.136,129.85 316.97,136.517 301.5,147.5C 286.462,143.405 271.129,141.405 255.5,141.5C 255.5,117.833 255.5,94.1667 255.5,70.5 Z"/></g>
<g><path style="opacity:1" fill="#3e5774" d="M 177.5,414.5 C 182.833,414.5 188.167,414.5 193.5,414.5C 193.829,420.206 193.495,425.872 192.5,431.5C 191.893,431.376 191.56,431.043 191.5,430.5C 192.487,425.695 192.821,420.695 192.5,415.5C 187.305,415.821 182.305,415.487 177.5,414.5 Z"/></g>
</svg>
