<?xml version="1.0" encoding="UTF-8"?>
<!DOCTYPE svg PUBLIC "-//W3C//DTD SVG 1.1//EN" "http://www.w3.org/Graphics/SVG/1.1/DTD/svg11.dtd">
<svg xmlns="http://www.w3.org/2000/svg" version="1.1" width="512px" height="512px" style="shape-rendering:geometricPrecision; text-rendering:geometricPrecision; image-rendering:optimizeQuality; fill-rule:evenodd; clip-rule:evenodd" xmlns:xlink="http://www.w3.org/1999/xlink">
<g><path style="opacity:0.987" fill="#2d2d87" d="M 99.5,-0.5 C 134.167,-0.5 168.833,-0.5 203.5,-0.5C 136.02,32.0722 68.353,64.4056 0.5,96.5C 12.1369,42.195 45.1369,9.86171 99.5,-0.5 Z"/></g>
<g><path style="opacity:0.992" fill="#523393" d="M 203.5,-0.5 C 241.167,-0.5 278.833,-0.5 316.5,-0.5C 278.047,16.893 239.714,34.5596 201.5,52.5C 172.165,52.3334 142.831,52.5 113.5,53C 85.4047,55.1271 66.2381,69.2938 56,95.5C 53.9793,103.373 52.8126,111.373 52.5,119.5C 34.7274,126.885 17.0607,134.552 -0.5,142.5C -0.5,128.167 -0.5,113.833 -0.5,99.5C 0.403972,98.791 0.737305,97.791 0.5,96.5C 68.353,64.4056 136.02,32.0722 203.5,-0.5 Z"/></g>
<g><path style="opacity:0.998" fill="#8a3293" d="M 316.5,-0.5 C 348.167,-0.5 379.833,-0.5 411.5,-0.5C 411.5,0.166667 411.833,0.5 412.5,0.5C 378.26,18.1199 343.927,35.4532 309.5,52.5C 273.5,52.5 237.5,52.5 201.5,52.5C 239.714,34.5596 278.047,16.893 316.5,-0.5 Z"/></g>
<g><path style="opacity:0.986" fill="#ca319b" d="M 412.5,0.5 C 459.78,8.5529 491.28,35.2196 507,80.5C 508.692,86.9293 510.192,93.2627 511.5,99.5C 511.5,115.833 511.5,132.167 511.5,148.5C 493.817,151.058 476.15,153.725 458.5,156.5C 458.667,142.163 458.5,127.829 458,113.5C 455.873,85.4047 441.706,66.2381 415.5,56C 409.634,54.2132 403.634,53.2132 397.5,53C 368.169,52.5 338.835,52.3334 309.5,52.5C 343.927,35.4532 378.26,18.1199 412.5,0.5 Z"/></g>
<g><path style="opacity:0.967" fill="#ca319b" d="M 390.5,78.5 C 418.975,78.141 432.808,92.141 432,120.5C 424.764,144.534 408.931,153.701 384.5,148C 363.777,137.719 356.943,121.552 364,99.5C 369.498,88.1559 378.332,81.1559 390.5,78.5 Z"/></g>
<g><path style="opacity:0.981" fill="#cb319b" d="M 378.5,169.5 C 352.834,172.307 327.5,176.307 302.5,181.5C 260.268,159.043 222.268,164.71 188.5,198.5C 163.125,201.909 137.792,205.575 112.5,209.5C 132.399,153.109 171.733,118.942 230.5,107C 286.625,99.332 333.459,116.499 371,158.5C 374.015,161.878 376.515,165.544 378.5,169.5 Z"/></g>
<g><path style="opacity:0.999" fill="#893293" d="M 52.5,119.5 C 52.5,139.5 52.5,159.5 52.5,179.5C 34.7059,187.897 17.0392,196.564 -0.5,205.5C -0.5,184.5 -0.5,163.5 -0.5,142.5C 17.0607,134.552 34.7274,126.885 52.5,119.5 Z"/></g>
<g><path style="opacity:1" fill="#fe4c94" d="M 511.5,148.5 C 511.5,210.167 511.5,271.833 511.5,333.5C 493.689,331.566 476.023,328.9 458.5,325.5C 458.5,269.167 458.5,212.833 458.5,156.5C 476.15,153.725 493.817,151.058 511.5,148.5 Z"/></g>
<g><path style="opacity:0.982" fill="#fe4c94" d="M 378.5,169.5 C 400.459,200.666 409.292,235.333 405,273.5C 403.028,288.06 399.194,302.06 393.5,315.5C 371.721,311.941 350.054,308.275 328.5,304.5C 348.927,270.345 348.094,236.678 326,203.5C 319.254,194.918 311.42,187.584 302.5,181.5C 327.5,176.307 352.834,172.307 378.5,169.5 Z"/></g>
<g><path style="opacity:0.999" fill="#ca319b" d="M 52.5,179.5 C 52.5,192.833 52.5,206.167 52.5,219.5C 34.8207,221.702 17.154,224.036 -0.5,226.5C -0.5,219.5 -0.5,212.5 -0.5,205.5C 17.0392,196.564 34.7059,187.897 52.5,179.5 Z"/></g>
<g><path style="opacity:0.983" fill="#fe4c94" d="M 188.5,198.5 C 169.402,222.656 163.735,249.656 171.5,279.5C 149.44,276.493 127.44,273.159 105.5,269.5C 103.778,248.943 106.111,228.943 112.5,209.5C 137.792,205.575 163.125,201.909 188.5,198.5 Z"/></g>
<g><path style="opacity:0.999" fill="#fe4c94" d="M 52.5,219.5 C 52.5,233.167 52.5,246.833 52.5,260.5C 34.6895,258.566 17.0228,255.9 -0.5,252.5C -0.5,243.833 -0.5,235.167 -0.5,226.5C 17.154,224.036 34.8207,221.702 52.5,219.5 Z"/></g>
<g><path style="opacity:0.999" fill="#e45260" d="M -0.5,252.5 C 17.0228,255.9 34.6895,258.566 52.5,260.5C 52.5,277.833 52.5,295.167 52.5,312.5C 34.8395,307.169 17.1728,301.836 -0.5,296.5C -0.5,281.833 -0.5,267.167 -0.5,252.5 Z"/></g>
<g><path style="opacity:0.984" fill="#e45260" d="M 105.5,269.5 C 127.44,273.159 149.44,276.493 171.5,279.5C 182.58,313.41 205.58,334.244 240.5,342C 277.168,346.29 306.501,333.79 328.5,304.5C 350.054,308.275 371.721,311.941 393.5,315.5C 375.791,354.211 347.124,381.211 307.5,396.5C 248.511,377.17 189.511,357.837 130.5,338.5C 116.064,317.872 107.731,294.872 105.5,269.5 Z"/></g>
<g><path style="opacity:0.999" fill="#fe5d4a" d="M -0.5,296.5 C 17.1728,301.836 34.8395,307.169 52.5,312.5C 52.5,329.167 52.5,345.833 52.5,362.5C 34.7508,355.028 17.0842,347.361 -0.5,339.5C -0.5,325.167 -0.5,310.833 -0.5,296.5 Z"/></g>
<g><path style="opacity:0.99" fill="#e45260" d="M 458.5,325.5 C 476.023,328.9 493.689,331.566 511.5,333.5C 511.5,359.5 511.5,385.5 511.5,411.5C 509,428.001 503.333,443.334 494.5,457.5C 476.643,451.325 458.643,445.325 440.5,439.5C 448.88,430.408 454.38,419.742 457,407.5C 458.407,380.192 458.907,352.859 458.5,325.5 Z"/></g>
<g><path style="opacity:0.995" fill="#fea150" d="M -0.5,339.5 C 17.0842,347.361 34.7508,355.028 52.5,362.5C 52.3335,374.171 52.5001,385.838 53,397.5C 54.8121,424.306 67.9788,443.14 92.5,454C 99.2879,456.447 106.288,457.78 113.5,458C 164.499,458.5 215.499,458.667 266.5,458.5C 305.167,476.167 343.833,493.833 382.5,511.5C 313.167,511.5 243.833,511.5 174.5,511.5C 116.37,475.264 58.0367,439.264 -0.5,403.5C -0.5,382.167 -0.5,360.833 -0.5,339.5 Z"/></g>
<g><path style="opacity:0.973" fill="#fe5c4a" d="M 130.5,338.5 C 189.511,357.837 248.511,377.17 307.5,396.5C 242.414,417.27 186.58,402.603 140,352.5C 136.566,347.949 133.399,343.282 130.5,338.5 Z"/></g>
<g><path style="opacity:0.985" fill="#fde393" d="M -0.5,403.5 C 58.0367,439.264 116.37,475.264 174.5,511.5C 149.5,511.5 124.5,511.5 99.5,511.5C 43.8365,500.503 10.5032,467.17 -0.5,411.5C -0.5,408.833 -0.5,406.167 -0.5,403.5 Z"/></g>
<g><path style="opacity:0.987" fill="#fe5d4a" d="M 440.5,439.5 C 458.643,445.325 476.643,451.325 494.5,457.5C 474.886,487.096 447.552,505.096 412.5,511.5C 402.5,511.5 392.5,511.5 382.5,511.5C 343.833,493.833 305.167,476.167 266.5,458.5C 313.522,458.949 360.522,458.449 407.5,457C 420.251,454.293 431.251,448.46 440.5,439.5 Z"/></g>
</svg>
