<?xml version="1.0" encoding="UTF-8"?>
<!DOCTYPE svg PUBLIC "-//W3C//DTD SVG 1.1//EN" "http://www.w3.org/Graphics/SVG/1.1/DTD/svg11.dtd">
<svg xmlns="http://www.w3.org/2000/svg" version="1.1" width="512px" height="512px" style="shape-rendering:geometricPrecision; text-rendering:geometricPrecision; image-rendering:optimizeQuality; fill-rule:evenodd; clip-rule:evenodd" xmlns:xlink="http://www.w3.org/1999/xlink">
<g><path style="opacity:0.996" fill="#000000" d="M 21.5,-0.5 C 32.5,-0.5 43.5,-0.5 54.5,-0.5C 57.9297,1.93541 59.5963,5.26875 59.5,9.5C 59.2167,13.2208 57.55,16.0541 54.5,18C 44.907,19.2546 35.2404,19.9212 25.5,20C 23,21.1667 21.1667,23 20,25.5C 19.3333,178.167 19.3333,330.833 20,483.5C 20.504,487.02 22.3374,489.52 25.5,491C 144.833,491.333 264.167,491.667 383.5,492C 388.617,493.053 391.284,496.219 391.5,501.5C 391.596,505.731 389.93,509.065 386.5,511.5C 264.833,511.5 143.167,511.5 21.5,511.5C 10.5,507.833 3.16667,500.5 -0.5,489.5C -0.5,333.5 -0.5,177.5 -0.5,21.5C 3.16667,10.5 10.5,3.16667 21.5,-0.5 Z"/></g>
<g><path style="opacity:0.949" fill="#000102" d="M 84.5,-0.5 C 87.8333,-0.5 91.1667,-0.5 94.5,-0.5C 97.9297,1.93541 99.5963,5.26875 99.5,9.5C 99.1129,16.053 95.6129,19.3863 89,19.5C 82.931,18.9308 79.7643,15.5975 79.5,9.5C 79.4037,5.26875 81.0703,1.93541 84.5,-0.5 Z"/></g>
<g><path style="opacity:0.996" fill="#000000" d="M 124.5,-0.5 C 246.167,-0.5 367.833,-0.5 489.5,-0.5C 500.5,3.16667 507.833,10.5 511.5,21.5C 511.5,177.5 511.5,333.5 511.5,489.5C 507.833,500.5 500.5,507.833 489.5,511.5C 478.5,511.5 467.5,511.5 456.5,511.5C 453.07,509.065 451.404,505.731 451.5,501.5C 451.775,496.772 454.108,493.606 458.5,492C 466.833,491.667 475.167,491.333 483.5,491C 488,490.5 490.5,488 491,483.5C 491.667,330.833 491.667,178.167 491,25.5C 489.749,22.6193 487.583,20.786 484.5,20C 365.167,19.6667 245.833,19.3333 126.5,19C 122.113,17.4075 119.779,14.2408 119.5,9.5C 119.404,5.26875 121.07,1.93541 124.5,-0.5 Z"/></g>
<g><path style="opacity:1" fill="#0173b2" d="M 59.5,9.5 C 66.1667,9.5 72.8333,9.5 79.5,9.5C 79.7643,15.5975 82.931,18.9308 89,19.5C 95.6129,19.3863 99.1129,16.053 99.5,9.5C 106.167,9.5 112.833,9.5 119.5,9.5C 119.779,14.2408 122.113,17.4075 126.5,19C 245.833,19.3333 365.167,19.6667 484.5,20C 487.583,20.786 489.749,22.6193 491,25.5C 491.667,178.167 491.667,330.833 491,483.5C 490.5,488 488,490.5 483.5,491C 475.167,491.333 466.833,491.667 458.5,492C 454.108,493.606 451.775,496.772 451.5,501.5C 444.833,501.5 438.167,501.5 431.5,501.5C 429.071,491.955 423.404,489.455 414.5,494C 412.798,496.235 411.798,498.735 411.5,501.5C 404.833,501.5 398.167,501.5 391.5,501.5C 391.284,496.219 388.617,493.053 383.5,492C 264.167,491.667 144.833,491.333 25.5,491C 22.3374,489.52 20.504,487.02 20,483.5C 19.3333,330.833 19.3333,178.167 20,25.5C 21.1667,23 23,21.1667 25.5,20C 35.2404,19.9212 44.907,19.2546 54.5,18C 57.55,16.0541 59.2167,13.2208 59.5,9.5 Z"/></g>
<g><path style="opacity:1" fill="#010203" d="M 115.5,70.5 C 146.631,69.9747 166.465,84.6414 175,114.5C 177.454,143.444 165.287,163.278 138.5,174C 113.132,180.103 92.9649,172.603 78,151.5C 63.8051,123.713 68.6385,99.8792 92.5,80C 99.713,75.5453 107.38,72.3787 115.5,70.5 Z"/></g>
<g><path style="opacity:1" fill="#fcfcfc" d="M 116.5,90.5 C 136.074,89.3593 148.907,98.026 155,116.5C 157.419,135.165 149.919,147.998 132.5,155C 111.324,159.003 97.4902,150.836 91,130.5C 88.6744,110.131 97.1744,96.7981 116.5,90.5 Z"/></g>
<g><path style="opacity:1" fill="#010101" d="M 333.5,181.5 C 379.224,179.603 412.391,198.936 433,239.5C 436.14,246.92 438.473,254.586 440,262.5C 440.992,320.582 440.658,378.582 439,436.5C 437.421,438.041 435.587,439.208 433.5,440C 407.167,440.667 380.833,440.667 354.5,440C 352.376,438.878 350.543,437.378 349,435.5C 347.681,386.559 347.014,337.559 347,288.5C 339.804,268.817 325.971,261.65 305.5,267C 295.63,271.902 289.463,279.735 287,290.5C 286.991,339.25 286.324,387.917 285,436.5C 283.421,438.041 281.587,439.208 279.5,440C 252.413,440.982 225.413,440.649 198.5,439C 196.19,437.363 194.69,435.196 194,432.5C 193.333,352.5 193.333,272.5 194,192.5C 195.167,190 197,188.167 199.5,187C 225.167,186.333 250.833,186.333 276.5,187C 282.129,190.083 284.796,194.917 284.5,201.5C 299.167,190.506 315.501,183.839 333.5,181.5 Z"/></g>
<g><path style="opacity:1" fill="#000001" d="M 82.5,186.5 C 109.169,186.333 135.835,186.5 162.5,187C 165.573,187.739 167.74,189.572 169,192.5C 169.667,272.5 169.667,352.5 169,432.5C 167.833,436.333 165.333,438.833 161.5,440C 135.5,440.667 109.5,440.667 83.5,440C 80.4173,439.214 78.2506,437.381 77,434.5C 76.3333,353.5 76.3333,272.5 77,191.5C 78.7297,189.598 80.563,187.931 82.5,186.5 Z"/></g>
<g><path style="opacity:1" fill="#fefefe" d="M 420.5,270.5 C 420.5,320.167 420.5,369.833 420.5,419.5C 402.833,419.5 385.167,419.5 367.5,419.5C 367.667,375.165 367.5,330.832 367,286.5C 357.233,254.36 335.733,241.193 302.5,247C 282.203,254.125 270.536,268.291 267.5,289.5C 266.501,332.663 266.168,375.997 266.5,419.5C 248.833,419.5 231.167,419.5 213.5,419.5C 213.5,348.5 213.5,277.5 213.5,206.5C 230.167,206.5 246.833,206.5 263.5,206.5C 263.334,214.507 263.5,222.507 264,230.5C 267.479,237.651 272.646,239.151 279.5,235C 304.881,202.654 336.881,193.654 375.5,208C 401.641,220.772 416.641,241.605 420.5,270.5 Z"/></g>
<g><path style="opacity:1" fill="#fefffe" d="M 96.5,206.5 C 114.167,206.5 131.833,206.5 149.5,206.5C 149.5,277.5 149.5,348.5 149.5,419.5C 131.833,419.5 114.167,419.5 96.5,419.5C 96.5,348.5 96.5,277.5 96.5,206.5 Z"/></g>
<g><path style="opacity:1" fill="#9f9f9f" d="M 96.5,206.5 C 96.5,277.5 96.5,348.5 96.5,419.5C 114.167,419.5 131.833,419.5 149.5,419.5C 131.674,420.497 113.674,420.83 95.5,420.5C 95.1675,348.998 95.5008,277.665 96.5,206.5 Z"/></g>
<g><path style="opacity:1" fill="#a2a2a2" d="M 267.5,289.5 C 267.5,333.167 267.5,376.833 267.5,420.5C 249.326,420.83 231.326,420.497 213.5,419.5C 231.167,419.5 248.833,419.5 266.5,419.5C 266.168,375.997 266.501,332.663 267.5,289.5 Z"/></g>
<g><path style="opacity:1" fill="#a0a0a0" d="M 420.5,270.5 C 421.499,320.331 421.832,370.331 421.5,420.5C 403.326,420.83 385.326,420.497 367.5,419.5C 385.167,419.5 402.833,419.5 420.5,419.5C 420.5,369.833 420.5,320.167 420.5,270.5 Z"/></g>
<g><path style="opacity:0.949" fill="#000103" d="M 431.5,501.5 C 431.596,505.731 429.93,509.065 426.5,511.5C 423.167,511.5 419.833,511.5 416.5,511.5C 413.07,509.065 411.404,505.731 411.5,501.5C 411.798,498.735 412.798,496.235 414.5,494C 423.404,489.455 429.071,491.955 431.5,501.5 Z"/></g>
</svg>
