<?xml version="1.0" encoding="UTF-8"?>
<!DOCTYPE svg PUBLIC "-//W3C//DTD SVG 1.1//EN" "http://www.w3.org/Graphics/SVG/1.1/DTD/svg11.dtd">
<svg xmlns="http://www.w3.org/2000/svg" version="1.1" width="512px" height="512px" style="shape-rendering:geometricPrecision; text-rendering:geometricPrecision; image-rendering:optimizeQuality; fill-rule:evenodd; clip-rule:evenodd" xmlns:xlink="http://www.w3.org/1999/xlink">
<g><path style="opacity:0.992" fill="#000000" d="M 44.5,-0.5 C 53.5,-0.5 62.5,-0.5 71.5,-0.5C 71.5,2.16667 71.5,4.83333 71.5,7.5C 71.5,10.1667 71.5,12.8333 71.5,15.5C 52.7366,11.8061 36.9033,16.8061 24,30.5C 17.1306,39.305 14.2973,49.305 15.5,60.5C 15.5,103.167 15.5,145.833 15.5,188.5C 15.5,275.833 15.5,363.167 15.5,450.5C 15.031,473.411 25.6976,488.244 47.5,495C 186.167,495.667 324.833,495.667 463.5,495C 485.307,488.233 495.973,473.399 495.5,450.5C 495.5,446.833 495.5,443.167 495.5,439.5C 498.167,439.5 500.833,439.5 503.5,439.5C 506.167,439.5 508.833,439.5 511.5,439.5C 511.5,448.5 511.5,457.5 511.5,466.5C 507.716,481.784 499.382,493.951 486.5,503C 480.08,506.718 473.414,509.551 466.5,511.5C 325.833,511.5 185.167,511.5 44.5,511.5C 29.2159,507.716 17.0493,499.382 8,486.5C 4.28202,480.08 1.44868,473.414 -0.5,466.5C -0.5,325.833 -0.5,185.167 -0.5,44.5C 3.2844,29.2159 11.6177,17.0493 24.5,8C 30.9196,4.28202 37.5863,1.44868 44.5,-0.5 Z"/></g>
<g><path style="opacity:1" fill="#000000" d="M 87.5,-0.5 C 92.8333,-0.5 98.1667,-0.5 103.5,-0.5C 103.5,2.16667 103.5,4.83333 103.5,7.5C 103.5,10.1667 103.5,12.8333 103.5,15.5C 98.1667,15.5 92.8333,15.5 87.5,15.5C 87.5,12.8333 87.5,10.1667 87.5,7.5C 87.5,4.83333 87.5,2.16667 87.5,-0.5 Z"/></g>
<g><path style="opacity:0.995" fill="#000000" d="M 119.5,-0.5 C 234.833,-0.5 350.167,-0.5 465.5,-0.5C 483.076,4.5666 495.576,15.5666 503,32.5C 507.06,43.6676 509.894,55.001 511.5,66.5C 511.5,185.5 511.5,304.5 511.5,423.5C 508.833,423.5 506.167,423.5 503.5,423.5C 500.833,423.5 498.167,423.5 495.5,423.5C 495.5,345.167 495.5,266.833 495.5,188.5C 495.667,148.832 495.5,109.165 495,69.5C 494.728,64.9244 493.895,60.5911 492.5,56.5C 490.963,42.9256 485.296,31.4256 475.5,22C 471.557,19.1956 467.223,17.1956 462.5,16C 348.167,15.5 233.834,15.3333 119.5,15.5C 119.5,12.8333 119.5,10.1667 119.5,7.5C 119.5,4.83333 119.5,2.16667 119.5,-0.5 Z"/></g>
<g><path style="opacity:1" fill="#fea444" d="M 71.5,7.5 C 76.8333,7.5 82.1667,7.5 87.5,7.5C 87.5,10.1667 87.5,12.8333 87.5,15.5C 92.8333,15.5 98.1667,15.5 103.5,15.5C 103.5,12.8333 103.5,10.1667 103.5,7.5C 108.833,7.5 114.167,7.5 119.5,7.5C 119.5,10.1667 119.5,12.8333 119.5,15.5C 233.834,15.3333 348.167,15.5 462.5,16C 467.223,17.1956 471.557,19.1956 475.5,22C 485.296,31.4256 490.963,42.9256 492.5,56.5C 484.191,47.3436 473.858,41.8436 461.5,40C 323.167,39.3333 184.833,39.3333 46.5,40C 33.6039,43.0806 23.2706,49.914 15.5,60.5C 14.2973,49.305 17.1306,39.305 24,30.5C 36.9033,16.8061 52.7366,11.8061 71.5,15.5C 71.5,12.8333 71.5,10.1667 71.5,7.5 Z"/></g>
<g><path style="opacity:1" fill="#fe703a" d="M 492.5,56.5 C 493.895,60.5911 494.728,64.9244 495,69.5C 495.5,109.165 495.667,148.832 495.5,188.5C 491.483,200.547 486.316,212.214 480,223.5C 477.188,228.84 473.688,233.507 469.5,237.5C 474.926,213.278 467.926,193.444 448.5,178C 415.247,159.607 387.581,165.774 365.5,196.5C 335.712,179.683 303.712,170.349 269.5,168.5C 268.432,167.566 267.099,167.232 265.5,167.5C 265.5,166.5 265.5,165.5 265.5,164.5C 269.127,137.444 273.127,110.444 277.5,83.5C 291.373,88.5717 305.04,94.2383 318.5,100.5C 322.653,133.555 340.986,147.055 373.5,141C 396.797,129.457 404.297,111.291 396,86.5C 384.435,66.8038 367.602,59.9705 345.5,66C 335.81,69.8578 328.476,76.3578 323.5,85.5C 307.875,78.5694 292.208,71.7361 276.5,65C 271.149,62.2652 266.983,63.4319 264,68.5C 258.342,101.766 253.175,135.099 248.5,168.5C 225.588,167.966 203.421,171.633 182,179.5C 181.955,182.22 182.455,184.886 183.5,187.5C 178.089,189.303 172.756,191.303 167.5,193.5C 166.431,191.031 165.098,188.698 163.5,186.5C 157.094,189.452 150.927,192.785 145,196.5C 128.094,171.196 104.927,162.696 75.5,171C 49.3527,183.117 37.5193,203.617 40,232.5C 40.6077,234.154 41.1077,235.821 41.5,237.5C 37.3118,233.507 33.8118,228.84 31,223.5C 24.6842,212.214 19.5175,200.547 15.5,188.5C 15.5,145.833 15.5,103.167 15.5,60.5C 23.2706,49.914 33.6039,43.0806 46.5,40C 184.833,39.3333 323.167,39.3333 461.5,40C 473.858,41.8436 484.191,47.3436 492.5,56.5 Z"/></g>
<g><path style="opacity:1" fill="#050302" d="M 265.5,164.5 C 264.566,165.568 264.232,166.901 264.5,168.5C 266.167,168.5 267.833,168.5 269.5,168.5C 303.712,170.349 335.712,179.683 365.5,196.5C 387.581,165.774 415.247,159.607 448.5,178C 467.926,193.444 474.926,213.278 469.5,237.5C 464.662,256.546 452.995,269.212 434.5,275.5C 436.153,283.447 437.487,291.447 438.5,299.5C 438.5,300.5 438.5,301.5 438.5,302.5C 436.265,302.205 434.265,302.539 432.5,303.5C 432.167,303.5 431.833,303.5 431.5,303.5C 428.833,303.5 426.167,303.5 423.5,303.5C 418.161,267.315 400.494,238.815 370.5,218C 338.449,196.651 303.116,185.317 264.5,184C 237.491,182.501 211.157,186.001 185.5,194.5C 185.233,192.035 184.566,189.701 183.5,187.5C 182.455,184.886 181.955,182.22 182,179.5C 203.421,171.633 225.588,167.966 248.5,168.5C 253.175,135.099 258.342,101.766 264,68.5C 266.983,63.4319 271.149,62.2652 276.5,65C 292.208,71.7361 307.875,78.5694 323.5,85.5C 328.476,76.3578 335.81,69.8578 345.5,66C 367.602,59.9705 384.435,66.8038 396,86.5C 404.297,111.291 396.797,129.457 373.5,141C 340.986,147.055 322.653,133.555 318.5,100.5C 305.04,94.2383 291.373,88.5717 277.5,83.5C 273.127,110.444 269.127,137.444 265.5,164.5 Z"/></g>
<g><path style="opacity:1" fill="#fcfcfc" d="M 353.5,79.5 C 367.829,78.2437 377.663,84.2437 383,97.5C 384.75,111.833 378.917,121.666 365.5,127C 350.316,129.326 340.483,123.16 336,108.5C 334.099,97.7983 337.599,89.2983 346.5,83C 348.925,81.7874 351.259,80.6207 353.5,79.5 Z"/></g>
<g><path style="opacity:1" fill="#040302" d="M 167.5,193.5 C 168.298,195.886 169.298,198.22 170.5,200.5C 139.132,214.706 114.965,236.706 98,266.5C 78.883,314.203 87.7164,356.036 124.5,392C 167.193,427.895 216.526,443.561 272.5,439C 315.357,435.948 353.024,420.615 385.5,393C 404.529,375.449 416.695,353.949 422,328.5C 422.498,325.518 422.665,322.518 422.5,319.5C 425.5,319.5 428.5,319.5 431.5,319.5C 431.833,319.5 432.167,319.5 432.5,319.5C 434.844,319.94 436.844,320.94 438.5,322.5C 434.4,356.537 419.4,384.704 393.5,407C 352.868,439.435 306.368,455.602 254,455.5C 205.581,455.36 162.081,440.86 123.5,412C 79.6451,376.27 63.9784,330.77 76.5,275.5C 58.005,269.212 46.3383,256.546 41.5,237.5C 41.1077,235.821 40.6077,234.154 40,232.5C 37.5193,203.617 49.3527,183.117 75.5,171C 104.927,162.696 128.094,171.196 145,196.5C 150.927,192.785 157.094,189.452 163.5,186.5C 165.098,188.698 166.431,191.031 167.5,193.5 Z"/></g>
<g><path style="opacity:1" fill="#692e18" d="M 265.5,164.5 C 265.5,165.5 265.5,166.5 265.5,167.5C 267.099,167.232 268.432,167.566 269.5,168.5C 267.833,168.5 266.167,168.5 264.5,168.5C 264.232,166.901 264.566,165.568 265.5,164.5 Z"/></g>
<g><path style="opacity:1" fill="#fcfcfc" d="M 87.5,183.5 C 103.305,181.736 116.471,186.736 127,198.5C 128.555,200.443 129.722,202.61 130.5,205C 110.414,220.323 94.414,239.156 82.5,261.5C 58.7633,250.021 50.93,231.688 59,206.5C 65.2538,194.646 74.7538,186.979 87.5,183.5 Z"/></g>
<g><path style="opacity:1" fill="#fdfdfd" d="M 431.5,303.5 C 431.5,308.833 431.5,314.167 431.5,319.5C 428.5,319.5 425.5,319.5 422.5,319.5C 422.665,322.518 422.498,325.518 422,328.5C 416.695,353.949 404.529,375.449 385.5,393C 353.024,420.615 315.357,435.948 272.5,439C 216.526,443.561 167.193,427.895 124.5,392C 87.7164,356.036 78.883,314.203 98,266.5C 114.965,236.706 139.132,214.706 170.5,200.5C 169.298,198.22 168.298,195.886 167.5,193.5C 172.756,191.303 178.089,189.303 183.5,187.5C 184.566,189.701 185.233,192.035 185.5,194.5C 211.157,186.001 237.491,182.501 264.5,184C 303.116,185.317 338.449,196.651 370.5,218C 400.494,238.815 418.161,267.315 423.5,303.5C 426.167,303.5 428.833,303.5 431.5,303.5 Z"/></g>
<g><path style="opacity:1" fill="#fcfcfc" d="M 407.5,183.5 C 429.864,181.754 445.364,191.087 454,211.5C 458.472,234.891 449.972,251.557 428.5,261.5C 416.586,239.156 400.586,220.323 380.5,205C 386.521,194.002 395.521,186.835 407.5,183.5 Z"/></g>
<g><path style="opacity:1" fill="#fe4400" d="M 15.5,188.5 C 19.5175,200.547 24.6842,212.214 31,223.5C 33.8118,228.84 37.3118,233.507 41.5,237.5C 46.3383,256.546 58.005,269.212 76.5,275.5C 63.9784,330.77 79.6451,376.27 123.5,412C 162.081,440.86 205.581,455.36 254,455.5C 306.368,455.602 352.868,439.435 393.5,407C 419.4,384.704 434.4,356.537 438.5,322.5C 439.404,321.791 439.737,320.791 439.5,319.5C 437.167,319.5 434.833,319.5 432.5,319.5C 432.167,319.5 431.833,319.5 431.5,319.5C 431.5,314.167 431.5,308.833 431.5,303.5C 431.833,303.5 432.167,303.5 432.5,303.5C 434.833,303.5 437.167,303.5 439.5,303.5C 439.768,301.901 439.434,300.568 438.5,299.5C 437.487,291.447 436.153,283.447 434.5,275.5C 452.995,269.212 464.662,256.546 469.5,237.5C 473.688,233.507 477.188,228.84 480,223.5C 486.316,212.214 491.483,200.547 495.5,188.5C 495.5,266.833 495.5,345.167 495.5,423.5C 498.167,423.5 500.833,423.5 503.5,423.5C 503.5,428.833 503.5,434.167 503.5,439.5C 500.833,439.5 498.167,439.5 495.5,439.5C 495.5,443.167 495.5,446.833 495.5,450.5C 486.941,462.453 475.274,469.286 460.5,471C 322.5,471.667 184.5,471.667 46.5,471C 33.6039,467.919 23.2706,461.086 15.5,450.5C 15.5,363.167 15.5,275.833 15.5,188.5 Z"/></g>
<g><path style="opacity:1" fill="#050404" d="M 176.5,263.5 C 202.397,262.568 215.231,274.901 215,300.5C 209.857,320.287 197.024,329.12 176.5,327C 158.128,320.772 149.961,307.939 152,288.5C 155.683,275.651 163.85,267.318 176.5,263.5 Z"/></g>
<g><path style="opacity:1" fill="#040403" d="M 320.5,263.5 C 345.883,262.389 358.716,274.389 359,299.5C 354.316,319.826 341.483,328.993 320.5,327C 304.597,322.043 296.264,311.209 295.5,294.5C 296.964,278.547 305.298,268.214 320.5,263.5 Z"/></g>
<g><path style="opacity:1" fill="#fa4300" d="M 178.5,279.5 C 194.689,279.177 201.189,286.844 198,302.5C 192.109,311.573 184.276,313.74 174.5,309C 164.083,297.501 165.416,287.667 178.5,279.5 Z"/></g>
<g><path style="opacity:1" fill="#f94300" d="M 322.5,279.5 C 338.689,279.177 345.189,286.844 342,302.5C 336.039,311.283 328.206,313.449 318.5,309C 311.086,302.705 309.586,295.205 314,286.5C 316.441,283.546 319.275,281.213 322.5,279.5 Z"/></g>
<g><path style="opacity:1" fill="#601a02" d="M 438.5,299.5 C 439.434,300.568 439.768,301.901 439.5,303.5C 437.167,303.5 434.833,303.5 432.5,303.5C 434.265,302.539 436.265,302.205 438.5,302.5C 438.5,301.5 438.5,300.5 438.5,299.5 Z"/></g>
<g><path style="opacity:1" fill="#6f1e01" d="M 432.5,319.5 C 434.833,319.5 437.167,319.5 439.5,319.5C 439.737,320.791 439.404,321.791 438.5,322.5C 436.844,320.94 434.844,319.94 432.5,319.5 Z"/></g>
<g><path style="opacity:1" fill="#040404" d="M 159.5,359.5 C 182.427,378.096 208.761,388.596 238.5,391C 275.098,394.416 309.098,386.749 340.5,368C 344,365.167 347.5,362.333 351,359.5C 355.059,363.056 358.559,367.056 361.5,371.5C 337.881,390.635 310.881,402.135 280.5,406C 239.123,411.57 200.456,403.903 164.5,383C 159.358,379.358 154.358,375.525 149.5,371.5C 152.48,367.189 155.813,363.189 159.5,359.5 Z"/></g>
<g><path style="opacity:1" fill="#d33900" d="M 15.5,450.5 C 23.2706,461.086 33.6039,467.919 46.5,471C 184.5,471.667 322.5,471.667 460.5,471C 475.274,469.286 486.941,462.453 495.5,450.5C 495.973,473.399 485.307,488.233 463.5,495C 324.833,495.667 186.167,495.667 47.5,495C 25.6976,488.244 15.031,473.411 15.5,450.5 Z"/></g>
</svg>
