<?xml version="1.0" encoding="UTF-8"?>
<!DOCTYPE svg PUBLIC "-//W3C//DTD SVG 1.1//EN" "http://www.w3.org/Graphics/SVG/1.1/DTD/svg11.dtd">
<svg xmlns="http://www.w3.org/2000/svg" version="1.1" width="512px" height="512px" style="shape-rendering:geometricPrecision; text-rendering:geometricPrecision; image-rendering:optimizeQuality; fill-rule:evenodd; clip-rule:evenodd" xmlns:xlink="http://www.w3.org/1999/xlink">
<g><path style="opacity:0.954" fill="#424b54" d="M 13.5,-0.5 C 15.8333,-0.5 18.1667,-0.5 20.5,-0.5C 22.1436,0.316435 23.3103,1.64977 24,3.5C 24.6667,8.83333 24.6667,14.1667 24,19.5C 19.3333,24.8333 14.6667,24.8333 10,19.5C 9.33333,14.1667 9.33333,8.83333 10,3.5C 10.6897,1.64977 11.8564,0.316435 13.5,-0.5 Z"/></g>
<g><path style="opacity:0.943" fill="#434c54" d="M 57.5,-0.5 C 60.1667,-0.5 62.8333,-0.5 65.5,-0.5C 69.2931,4.8448 70.4598,10.8448 69,17.5C 66.305,23.0978 62.1383,24.5978 56.5,22C 55.2986,21.0975 54.4652,19.9308 54,18.5C 53.3333,13.5 53.3333,8.5 54,3.5C 55.0319,1.97331 56.1986,0.639972 57.5,-0.5 Z"/></g>
<g><path style="opacity:0.924" fill="#424b53" d="M 101.5,-0.5 C 104.167,-0.5 106.833,-0.5 109.5,-0.5C 110.458,0.961599 111.624,2.29493 113,3.5C 113.667,8.5 113.667,13.5 113,18.5C 109.929,23.2988 105.762,24.4655 100.5,22C 99.1068,20.8289 98.2735,19.3289 98,17.5C 97.3333,13.1667 97.3333,8.83333 98,4.5C 98.9973,2.67694 100.164,1.01027 101.5,-0.5 Z"/></g>
<g><path style="opacity:0.97" fill="#444c53" d="M 79.5,63.5 C 142.225,63.011 204.892,63.511 267.5,65C 268.833,65.6667 270.167,66.3333 271.5,67C 326.667,122.167 381.833,177.333 437,232.5C 448.333,247.833 448.333,263.167 437,278.5C 381.833,333.667 326.667,388.833 271.5,444C 270.167,444.667 268.833,445.333 267.5,446C 204.891,447.656 142.224,447.989 79.5,447C 64.7872,439.31 61.2872,428.143 69,413.5C 121.68,360.986 174.18,308.32 226.5,255.5C 174.18,202.68 121.68,150.014 69,97.5C 61.3604,82.7247 64.8604,71.3914 79.5,63.5 Z"/></g>
<g><path style="opacity:1" fill="#fea716" d="M 171.5,78.5 C 224.132,131.632 276.965,184.632 330,237.5C 338.667,249.5 338.667,261.5 330,273.5C 276.965,326.368 224.132,379.368 171.5,432.5C 142.165,432.667 112.831,432.5 83.5,432C 80.7104,429.79 79.877,426.956 81,423.5C 136.028,368.806 190.694,313.806 245,258.5C 245.938,255.12 245.271,252.12 243,249.5C 189,195.5 135,141.5 81,87.5C 79.877,84.0437 80.7104,81.2103 83.5,79C 112.831,78.5 142.165,78.3334 171.5,78.5 Z"/></g>
<g><path style="opacity:1" fill="#fec743" d="M 171.5,78.5 C 201.921,78.0156 232.254,78.5156 262.5,80C 317,134.5 371.5,189 426,243.5C 430.667,251.5 430.667,259.5 426,267.5C 371.5,322 317,376.5 262.5,431C 232.254,432.484 201.921,432.984 171.5,432.5C 224.132,379.368 276.965,326.368 330,273.5C 338.667,261.5 338.667,249.5 330,237.5C 276.965,184.632 224.132,131.632 171.5,78.5 Z"/></g>
<g><path style="opacity:0.929" fill="#424b53" d="M 408.5,511.5 C 405.833,511.5 403.167,511.5 400.5,511.5C 399.164,509.99 397.997,508.323 397,506.5C 396.333,501.833 396.333,497.167 397,492.5C 400.071,487.701 404.238,486.535 409.5,489C 410.701,489.903 411.535,491.069 412,492.5C 412.667,497.167 412.667,501.833 412,506.5C 411.003,508.323 409.836,509.99 408.5,511.5 Z"/></g>
<g><path style="opacity:0.931" fill="#424b53" d="M 452.5,511.5 C 449.833,511.5 447.167,511.5 444.5,511.5C 440.744,506.498 439.577,500.831 441,494.5C 443.16,488.171 447.327,486.338 453.5,489C 454.701,489.903 455.535,491.069 456,492.5C 456.667,497.5 456.667,502.5 456,507.5C 455.31,509.35 454.144,510.684 452.5,511.5 Z"/></g>
<g><path style="opacity:0.951" fill="#424b54" d="M 496.5,511.5 C 494.167,511.5 491.833,511.5 489.5,511.5C 487.856,510.684 486.69,509.35 486,507.5C 485.333,502.167 485.333,496.833 486,491.5C 493.017,485.369 498.017,486.703 501,495.5C 502.558,501.878 501.058,507.212 496.5,511.5 Z"/></g>
</svg>
