<?xml version="1.0" encoding="UTF-8"?>
<!DOCTYPE svg PUBLIC "-//W3C//DTD SVG 1.1//EN" "http://www.w3.org/Graphics/SVG/1.1/DTD/svg11.dtd">
<svg xmlns="http://www.w3.org/2000/svg" version="1.1" width="512px" height="512px" style="shape-rendering:geometricPrecision; text-rendering:geometricPrecision; image-rendering:optimizeQuality; fill-rule:evenodd; clip-rule:evenodd" xmlns:xlink="http://www.w3.org/1999/xlink">
<g><path style="opacity:0.971" fill="#000101" d="M 511.5,98.5 C 511.5,101.5 511.5,104.5 511.5,107.5C 497.689,127.484 481.189,145.151 462,160.5C 461.33,257.318 424.83,337.485 352.5,401C 290.981,449.226 220.981,470.56 142.5,465C 92.3239,461.052 45.9906,445.719 3.5,419C 1.92975,417.603 0.596413,416.103 -0.5,414.5C -0.5,411.5 -0.5,408.5 -0.5,405.5C 1.06914,402.772 3.40247,400.938 6.5,400C 50.265,404.875 91.265,396.542 129.5,375C 98.2941,364.454 75.1274,344.621 60,315.5C 57.4329,309.874 55.5996,304.04 54.5,298C 54.6516,292.041 57.6516,288.375 63.5,287C 31.8837,261.949 17.717,229.449 21,189.5C 26.8901,184.395 32.8901,184.395 39,189.5C 17.2412,154.714 13.9078,118.047 29,79.5C 31.1196,74.7582 33.6196,70.2582 36.5,66C 40.6389,63.1435 44.9723,62.8102 49.5,65C 58.7028,75.7146 68.3695,86.0479 78.5,96C 90.71,106.545 103.21,116.712 116,126.5C 116.747,129.924 116.58,133.257 115.5,136.5C 111.757,141.401 107.091,142.568 101.5,140C 81.2342,126.414 62.7342,110.581 46,92.5C 33.4457,131.709 41.9457,165.542 71.5,194C 75.6004,196.467 79.4338,199.301 83,202.5C 86.0422,209.085 84.5422,214.252 78.5,218C 65.8654,219.255 53.6987,217.422 42,212.5C 41.5,212.833 41,213.167 40.5,213.5C 50.3674,253.534 75.3674,278.367 115.5,288C 120.833,293.667 120.833,299.333 115.5,305C 104.125,308.591 92.4586,310.425 80.5,310.5C 99.6533,341.591 127.653,358.091 164.5,360C 169.447,364.985 169.78,370.319 165.5,376C 131.588,401.977 93.2546,416.977 50.5,421C 127.452,453.597 204.452,453.597 281.5,421C 362.968,380.832 414.135,316.332 435,227.5C 440.083,202.091 442.416,176.425 442,150.5C 451.798,142.371 461.298,133.871 470.5,125C 460.235,126.543 449.902,127.543 439.5,128C 431.908,122.492 431.575,116.492 438.5,110C 449.038,103.799 458.038,95.7991 465.5,86C 451.848,90.7486 437.848,94.5819 423.5,97.5C 421.701,97.423 420.034,96.923 418.5,96C 383.929,62.6942 345.262,57.0275 302.5,79C 267.282,103.129 253.615,136.295 261.5,178.5C 262.037,183.928 259.704,187.428 254.5,189C 232.484,188.72 210.817,185.72 189.5,180C 183.114,177.731 180.448,173.231 181.5,166.5C 182.836,161.896 186.003,159.562 191,159.5C 206.921,163.151 222.921,166.151 239,168.5C 236.707,115.569 259.207,77.402 306.5,54C 339.075,41.5768 371.075,42.9102 402.5,58C 411.6,63.2809 420.267,69.1143 428.5,75.5C 448.33,70.8358 466.997,63.3358 484.5,53C 494.333,52.1667 498.833,56.6667 498,66.5C 494.292,78.1515 488.792,88.8181 481.5,98.5C 481.667,98.8333 481.833,99.1667 482,99.5C 488.316,96.6724 494.816,94.3391 501.5,92.5C 506.137,92.4947 509.47,94.4947 511.5,98.5 Z"/></g>
<g><path style="opacity:1" fill="#77d1f9" d="M 115.5,136.5 C 122.58,140.902 129.914,144.902 137.5,148.5C 135.046,159.429 139.38,164.262 150.5,163C 153.023,161.64 155.023,159.807 156.5,157.5C 164.752,160.695 173.086,163.695 181.5,166.5C 180.448,173.231 183.114,177.731 189.5,180C 210.817,185.72 232.484,188.72 254.5,189C 259.704,187.428 262.037,183.928 261.5,178.5C 253.615,136.295 267.282,103.129 302.5,79C 345.262,57.0275 383.929,62.6942 418.5,96C 420.034,96.923 421.701,97.423 423.5,97.5C 437.848,94.5819 451.848,90.7486 465.5,86C 458.038,95.7991 449.038,103.799 438.5,110C 431.575,116.492 431.908,122.492 439.5,128C 449.902,127.543 460.235,126.543 470.5,125C 461.298,133.871 451.798,142.371 442,150.5C 442.416,176.425 440.083,202.091 435,227.5C 414.135,316.332 362.968,380.832 281.5,421C 204.452,453.597 127.452,453.597 50.5,421C 93.2546,416.977 131.588,401.977 165.5,376C 169.78,370.319 169.447,364.985 164.5,360C 127.653,358.091 99.6533,341.591 80.5,310.5C 92.4586,310.425 104.125,308.591 115.5,305C 120.833,299.333 120.833,293.667 115.5,288C 75.3674,278.367 50.3674,253.534 40.5,213.5C 41,213.167 41.5,212.833 42,212.5C 53.6987,217.422 65.8654,219.255 78.5,218C 84.5422,214.252 86.0422,209.085 83,202.5C 79.4338,199.301 75.6004,196.467 71.5,194C 41.9457,165.542 33.4457,131.709 46,92.5C 62.7342,110.581 81.2342,126.414 101.5,140C 107.091,142.568 111.757,141.401 115.5,136.5 Z"/></g>
<g><path style="opacity:0.94" fill="#010203" d="M 156.5,157.5 C 155.023,159.807 153.023,161.64 150.5,163C 139.38,164.262 135.046,159.429 137.5,148.5C 143.546,141.85 149.713,141.85 156,148.5C 157.574,151.492 157.741,154.492 156.5,157.5 Z"/></g>
<g><path style="opacity:1" fill="#010202" d="M 367.5,287.5 C 376.987,286.819 381.154,291.153 380,300.5C 377.232,306.172 372.732,308.006 366.5,306C 359.621,299.35 359.955,293.183 367.5,287.5 Z"/></g>
<g><path style="opacity:1" fill="#020404" d="M 346.5,316.5 C 354.255,315.596 358.922,318.93 360.5,326.5C 360.378,328.791 359.545,330.791 358,332.5C 338.751,356.026 315.918,375.193 289.5,390C 278.109,390.597 274.276,385.43 278,374.5C 290.443,366.389 302.61,357.889 314.5,349C 325.369,338.298 336.035,327.465 346.5,316.5 Z"/></g>
</svg>
